<svg width="16" height="16" viewBox="0 0 55 55" fill="none" xmlns="http://www.w3.org/2000/svg">
<circle cx="27.5" cy="27.5" r="27.5" fill="white"/>
<path d="M29.6719 19.4668C28.6289 19.4668 27.7031 19.6719 26.8945 20.082C26.0977 20.4805 25.4238 21.0605 24.873 21.8223C24.334 22.5723 23.9238 23.4922 23.6426 24.582C23.3613 25.6602 23.2207 26.873 23.2207 28.2207C23.2207 29.5918 23.3438 30.8105 23.5898 31.877C23.8477 32.9434 24.2344 33.8457 24.75 34.584C25.2773 35.3105 25.9453 35.8672 26.7539 36.2539C27.5742 36.6289 28.5469 36.8164 29.6719 36.8164C30.7148 36.8164 31.7578 36.6992 32.8008 36.4648C33.8555 36.2305 34.998 35.8965 36.2285 35.4629V40.0332C35.666 40.2676 35.1094 40.4668 34.5586 40.6309C34.0078 40.7949 33.4453 40.9297 32.8711 41.0352C32.2969 41.1406 31.7051 41.2168 31.0957 41.2637C30.498 41.3223 29.8535 41.3516 29.1621 41.3516C27.1816 41.3516 25.4648 41.0352 24.0117 40.4023C22.5586 39.7695 21.3574 38.8789 20.4082 37.7305C19.459 36.582 18.7559 35.1992 18.2988 33.582C17.8418 31.9648 17.6133 30.166 17.6133 28.1855C17.6133 26.2402 17.877 24.459 18.4043 22.8418C18.9316 21.2129 19.7051 19.8125 20.7246 18.6406C21.7441 17.4688 23.0039 16.5605 24.5039 15.916C26.0039 15.2598 27.7266 14.9316 29.6719 14.9316C30.9492 14.9316 32.2266 15.0957 33.5039 15.4238C34.793 15.7402 36.0234 16.1797 37.1953 16.7422L35.4375 21.1719C34.4766 20.7148 33.5098 20.3164 32.5371 19.9766C31.5645 19.6367 30.6094 19.4668 29.6719 19.4668Z" fill="black"/>
</svg>
